<svg width="49" height="49" viewBox="0 0 49 49" fill="none" xmlns="http://www.w3.org/2000/svg">
<path fill-rule="evenodd" clip-rule="evenodd" d="M8.12695 24.5C8.12695 15.3864 15.5134 8 24.627 8C33.7405 8 41.127 15.3864 41.127 24.5C41.127 33.6136 33.7405 41 24.627 41C15.5134 41 8.12695 33.6136 8.12695 24.5ZM5.12695 24.5C5.12695 35.2704 13.8565 44 24.627 44C35.3974 44 44.127 35.2704 44.127 24.5C44.127 13.7296 35.3974 5 24.627 5C13.8565 5 5.12695 13.7296 5.12695 24.5ZM24.2108 18.487C23.6249 17.9014 22.6752 17.9016 22.0895 18.4875C21.5038 19.0734 21.504 20.0231 22.0899 20.6088L25.9827 24.5L22.0899 28.3912C21.504 28.9768 21.5038 29.9266 22.0895 30.5125C22.6752 31.0984 23.6249 31.0986 24.2108 30.5129L29.1649 25.5609C29.4463 25.2795 29.6045 24.8979 29.6045 24.5C29.6045 24.102 29.4463 23.7204 29.1649 23.4391L24.2108 18.487Z" fill="url(#paint0_linear_3382_1279)"/>
<defs>
<linearGradient id="paint0_linear_3382_1279" x1="24.627" y1="5" x2="24.627" y2="44" gradientUnits="userSpaceOnUse">
<stop stop-color="#FF007A"/>
<stop offset="1" stop-color="#DB00FF"/>
</linearGradient>
</defs>
</svg>
