<svg width="49" height="49" viewBox="0 0 49 49" fill="none" xmlns="http://www.w3.org/2000/svg">
<path fill-rule="evenodd" clip-rule="evenodd" d="M41.127 24.5C41.127 15.3864 33.7405 8 24.627 8C15.5134 8 8.12695 15.3864 8.12695 24.5C8.12695 33.6136 15.5134 41 24.627 41C33.7405 41 41.127 33.6136 41.127 24.5ZM44.127 24.5C44.127 35.2704 35.3974 44 24.627 44C13.8565 44 5.12695 35.2704 5.12695 24.5C5.12695 13.7296 13.8565 5 24.627 5C35.3974 5 44.127 13.7296 44.127 24.5ZM25.0431 18.487C25.629 17.9014 26.5787 17.9016 27.1644 18.4875C27.7501 19.0734 27.7499 20.0231 27.164 20.6088L23.2712 24.5L27.164 28.3912C27.7499 28.9768 27.7501 29.9266 27.1644 30.5125C26.5787 31.0984 25.629 31.0986 25.0431 30.5129L20.089 25.5609C19.8076 25.2795 19.6495 24.8979 19.6495 24.5C19.6495 24.102 19.8076 23.7204 20.089 23.4391L25.0431 18.487Z" fill="url(#paint0_linear_3382_1281)"/>
<defs>
<linearGradient id="paint0_linear_3382_1281" x1="24.627" y1="5" x2="24.627" y2="44" gradientUnits="userSpaceOnUse">
<stop stop-color="#FF007A"/>
<stop offset="1" stop-color="#DB00FF"/>
</linearGradient>
</defs>
</svg>
