<svg width="34" height="37" viewBox="0 0 34 37" fill="none" xmlns="http://www.w3.org/2000/svg">
<mask id="path-1-inside-1_3131_623" fill="white">
<path d="M4.81266 10.7517C-1.08258 14.2352 -1.08259 22.7648 4.81265 26.2483L19.583 34.9763C25.5826 38.5215 33.1616 34.1967 33.1616 27.228L33.1616 9.77203C33.1616 2.80333 25.5826 -1.52149 19.5831 2.0237L4.81266 10.7517Z"/>
</mask>
<path d="M19.5831 2.0237L17.0394 -2.28094L19.5831 2.0237ZM19.583 34.9763L17.0394 39.2809L19.583 34.9763ZM4.81266 10.7517L7.35631 15.0563L4.81266 10.7517ZM7.3563 21.9437L22.1267 30.6717L17.0394 39.2809L2.26901 30.553L7.3563 21.9437ZM28.1616 27.228L28.1616 9.77204L38.1616 9.77203L38.1616 27.228H28.1616ZM22.1267 6.32833L7.35631 15.0563L2.26901 6.44703L17.0394 -2.28094L22.1267 6.32833ZM28.1616 9.77204C28.1616 6.67483 24.7932 4.75269 22.1267 6.32833L17.0394 -2.28094C26.372 -7.79566 38.1616 -1.06816 38.1616 9.77203L28.1616 9.77204ZM22.1267 30.6717C24.7932 32.2473 28.1616 30.3252 28.1616 27.228H38.1616C38.1616 38.0682 26.372 44.7957 17.0394 39.2809L22.1267 30.6717ZM2.26901 30.553C-6.90139 25.1341 -6.90136 11.8659 2.26901 6.44703L7.35631 15.0563C4.73619 16.6045 4.7362 20.3955 7.3563 21.9437L2.26901 30.553Z" fill="url(#paint0_linear_3131_623)" mask="url(#path-1-inside-1_3131_623)"/>
<defs>
<linearGradient id="paint0_linear_3131_623" x1="12.4309" y1="-6" x2="12.4309" y2="43" gradientUnits="userSpaceOnUse">
<stop stop-color="#AD00FF"/>
<stop offset="1" stop-color="#4200FF"/>
</linearGradient>
</defs>
</svg>
