<svg width="34" height="37" viewBox="0 0 34 37" fill="none" xmlns="http://www.w3.org/2000/svg">
<mask id="path-1-inside-1_3131_626" fill="white">
<path d="M29.2103 10.7517C35.1055 14.2352 35.1055 22.7648 29.2103 26.2483L14.4399 34.9763C8.44036 38.5215 0.861329 34.1967 0.861329 27.228L0.86133 9.77203C0.86133 2.80333 8.44035 -1.52149 14.4399 2.0237L29.2103 10.7517Z"/>
</mask>
<path d="M14.4399 2.0237L16.9835 -2.28094L14.4399 2.0237ZM14.4399 34.9763L16.9835 39.2809L14.4399 34.9763ZM29.2103 10.7517L26.6666 15.0563L29.2103 10.7517ZM26.6666 21.9437L11.8963 30.6717L16.9835 39.2809L31.7539 30.553L26.6666 21.9437ZM5.86133 27.228L5.86133 9.77204L-4.13867 9.77203L-4.13867 27.228H5.86133ZM11.8962 6.32833L26.6666 15.0563L31.7539 6.44703L16.9835 -2.28094L11.8962 6.32833ZM5.86133 9.77204C5.86133 6.67483 9.22978 4.75269 11.8962 6.32833L16.9835 -2.28094C7.65092 -7.79566 -4.13867 -1.06816 -4.13867 9.77203L5.86133 9.77204ZM11.8963 30.6717C9.22978 32.2473 5.86133 30.3252 5.86133 27.228H-4.13867C-4.13867 38.0682 7.65094 44.7957 16.9835 39.2809L11.8963 30.6717ZM31.7539 30.553C40.9243 25.1341 40.9243 11.8659 31.7539 6.44703L26.6666 15.0563C29.2868 16.6045 29.2868 20.3955 26.6666 21.9437L31.7539 30.553Z" fill="url(#paint0_linear_3131_626)" mask="url(#path-1-inside-1_3131_626)"/>
<defs>
<linearGradient id="paint0_linear_3131_626" x1="21.5921" y1="-6" x2="21.5921" y2="43" gradientUnits="userSpaceOnUse">
<stop stop-color="#AD00FF"/>
<stop offset="1" stop-color="#4200FF"/>
</linearGradient>
</defs>
</svg>
