<svg width="34" height="36" viewBox="0 0 34 36" fill="none" xmlns="http://www.w3.org/2000/svg">
<mask id="path-1-inside-1_3214_893" fill="white">
<path d="M5.11296 10.5017C-0.782291 13.9852 -0.782299 22.5148 5.11295 25.9983L19.8833 34.7263C25.8829 38.2715 33.4619 33.9467 33.4619 26.978L33.4619 9.52203C33.4619 2.55333 25.8829 -1.77149 19.8834 1.7737L5.11296 10.5017Z"/>
</mask>
<path d="M19.8834 1.7737L17.3397 -2.53094L19.8834 1.7737ZM19.8833 34.7263L17.3397 39.0309L19.8833 34.7263ZM5.11296 10.5017L7.6566 14.8063L5.11296 10.5017ZM7.6566 21.6937L22.427 30.4217L17.3397 39.0309L2.5693 30.303L7.6566 21.6937ZM28.4619 26.978L28.4619 9.52204L38.4619 9.52203L38.4619 26.978H28.4619ZM22.427 6.07833L7.6566 14.8063L2.56931 6.19703L17.3397 -2.53094L22.427 6.07833ZM28.4619 9.52204C28.4619 6.42483 25.0935 4.50269 22.427 6.07833L17.3397 -2.53094C26.6723 -8.04566 38.4619 -1.31816 38.4619 9.52203L28.4619 9.52204ZM22.427 30.4217C25.0935 31.9973 28.4619 30.0752 28.4619 26.978H38.4619C38.4619 37.8182 26.6723 44.5457 17.3397 39.0309L22.427 30.4217ZM2.5693 30.303C-6.60109 24.8841 -6.60107 11.6159 2.56931 6.19703L7.6566 14.8063C5.03648 16.3545 5.03649 20.1455 7.6566 21.6937L2.5693 30.303Z" fill="white" mask="url(#path-1-inside-1_3214_893)"/>
</svg>
