<svg width="34" height="36" viewBox="0 0 34 36" fill="none" xmlns="http://www.w3.org/2000/svg">
<mask id="path-1-inside-1_3131_519" fill="white">
<path d="M28.8875 25.9983C34.7828 22.5148 34.7828 13.9852 28.8875 10.5017L14.1171 1.7737C8.11761 -1.77148 0.538575 2.55334 0.538575 9.52204L0.538576 26.978C0.538576 33.9467 8.1176 38.2715 14.1171 34.7263L28.8875 25.9983Z"/>
</mask>
<path d="M14.1171 1.7737L11.5735 6.07833L14.1171 1.7737ZM26.3439 14.8063L11.5735 6.07833L16.6608 -2.53093L31.4312 6.19703L26.3439 14.8063ZM5.53857 9.52204L5.53858 26.978L-4.46142 26.978L-4.46143 9.52204L5.53857 9.52204ZM11.5735 30.4217L26.3439 21.6937L31.4312 30.303L16.6608 39.0309L11.5735 30.4217ZM5.53858 26.978C5.53858 30.0752 8.90703 31.9973 11.5735 30.4217L16.6608 39.0309C7.32817 44.5457 -4.46142 37.8182 -4.46142 26.978L5.53858 26.978ZM11.5735 6.07833C8.90703 4.50269 5.53857 6.42484 5.53857 9.52204L-4.46143 9.52204C-4.46143 -1.31817 7.32818 -8.04566 16.6608 -2.53093L11.5735 6.07833ZM31.4312 6.19703C40.6016 11.6159 40.6016 24.8841 31.4312 30.303L26.3439 21.6937C28.964 20.1455 28.964 16.3545 26.3439 14.8063L31.4312 6.19703Z" fill="url(#paint0_linear_3131_519)" mask="url(#path-1-inside-1_3131_519)"/>
<defs>
<linearGradient id="paint0_linear_3131_519" x1="21.2693" y1="42.75" x2="21.2693" y2="-6.25" gradientUnits="userSpaceOnUse">
<stop stop-color="#AD00FF"/>
<stop offset="1" stop-color="#4200FF"/>
</linearGradient>
</defs>
</svg>
