<svg width="34" height="36" viewBox="0 0 34 36" fill="none" xmlns="http://www.w3.org/2000/svg">
<mask id="path-1-inside-1_3214_899" fill="white">
<path d="M28.887 25.9983C34.7823 22.5148 34.7823 13.9852 28.8871 10.5017L14.1167 1.7737C8.11712 -1.77148 0.538086 2.55333 0.538087 9.52203L0.538087 26.978C0.538088 33.9467 8.11711 38.2715 14.1166 34.7263L28.887 25.9983Z"/>
</mask>
<path d="M14.1166 34.7263L16.6603 39.0309L14.1166 34.7263ZM14.1167 1.7737L16.6603 -2.53093L14.1167 1.7737ZM28.887 25.9983L26.3434 21.6937L28.887 25.9983ZM26.3434 14.8063L11.573 6.07833L16.6603 -2.53093L31.4307 6.19703L26.3434 14.8063ZM5.53809 9.52203L5.53809 26.978L-4.46191 26.978L-4.46191 9.52203H5.53809ZM11.573 30.4217L26.3434 21.6937L31.4307 30.303L16.6603 39.0309L11.573 30.4217ZM5.53809 26.978C5.53809 30.0752 8.90654 31.9973 11.573 30.4217L16.6603 39.0309C7.32768 44.5457 -4.46191 37.8182 -4.46191 26.978L5.53809 26.978ZM11.573 6.07833C8.90654 4.50269 5.53809 6.42484 5.53809 9.52203H-4.46191C-4.46191 -1.31817 7.32769 -8.04566 16.6603 -2.53093L11.573 6.07833ZM31.4307 6.19703C40.6011 11.6159 40.6011 24.8841 31.4307 30.303L26.3434 21.6937C28.9635 20.1455 28.9635 16.3545 26.3434 14.8063L31.4307 6.19703Z" fill="white" mask="url(#path-1-inside-1_3214_899)"/>
</svg>
