<svg width="34" height="36" viewBox="0 0 34 36" fill="none" xmlns="http://www.w3.org/2000/svg">
<mask id="path-1-inside-1_3131_513" fill="white">
<path d="M5.11247 10.5017C-0.78278 13.9852 -0.782787 22.5148 5.11246 25.9983L19.8829 34.7263C25.8824 38.2715 33.4614 33.9467 33.4614 26.978L33.4614 9.52203C33.4614 2.55333 25.8824 -1.77149 19.8829 1.7737L5.11247 10.5017Z"/>
</mask>
<path d="M19.8829 1.7737L17.3392 -2.53094L19.8829 1.7737ZM19.8829 34.7263L17.3392 39.0309L19.8829 34.7263ZM5.11247 10.5017L7.65611 14.8063L5.11247 10.5017ZM7.65611 21.6937L22.4265 30.4217L17.3392 39.0309L2.56881 30.303L7.65611 21.6937ZM28.4614 26.978L28.4614 9.52204L38.4614 9.52203L38.4614 26.978H28.4614ZM22.4265 6.07833L7.65611 14.8063L2.56882 6.19703L17.3392 -2.53094L22.4265 6.07833ZM28.4614 9.52204C28.4614 6.42483 25.093 4.50269 22.4265 6.07833L17.3392 -2.53094C26.6718 -8.04566 38.4614 -1.31816 38.4614 9.52203L28.4614 9.52204ZM22.4265 30.4217C25.093 31.9973 28.4614 30.0752 28.4614 26.978H38.4614C38.4614 37.8182 26.6718 44.5457 17.3392 39.0309L22.4265 30.4217ZM2.56881 30.303C-6.60158 24.8841 -6.60156 11.6159 2.56882 6.19703L7.65611 14.8063C5.036 16.3545 5.036 20.1455 7.65611 21.6937L2.56881 30.303Z" fill="url(#paint0_linear_3131_513)" mask="url(#path-1-inside-1_3131_513)"/>
<defs>
<linearGradient id="paint0_linear_3131_513" x1="12.7307" y1="-6.25" x2="12.7307" y2="42.75" gradientUnits="userSpaceOnUse">
<stop stop-color="#AD00FF"/>
<stop offset="1" stop-color="#4200FF"/>
</linearGradient>
</defs>
</svg>
