<svg width="18" height="18" viewBox="0 0 18 18" fill="none" xmlns="http://www.w3.org/2000/svg">
<mask id="mask0_3854_2500" style="mask-type:alpha" maskUnits="userSpaceOnUse" x="0" y="0" width="18" height="18">
<path fill-rule="evenodd" clip-rule="evenodd" d="M2 0H16C17.11 0 18 0.9 18 2V16C18 17.1 17.11 18 16 18H2C0.89 18 0 17.1 0 16V2C0 0.9 0.89 0 2 0ZM6.29289 13.2929C6.68342 13.6834 7.31658 13.6834 7.70711 13.2929L15.2954 5.70461C15.6849 5.31506 15.6857 4.68343 15.2975 4.29251C14.9074 3.89963 14.2719 3.89811 13.8804 4.28961L7.70612 10.4639C7.31598 10.854 6.68358 10.8545 6.29289 10.4649L4.11549 8.29353C3.7257 7.90482 3.09474 7.90526 2.70549 8.29451C2.31586 8.68414 2.31586 9.31586 2.70549 9.70549L6.29289 13.2929Z" fill="white"/>
</mask>
<g mask="url(#mask0_3854_2500)">
<rect x="-3" y="-3" width="24" height="24" fill="#E129FF"/>
</g>
</svg>
