<svg width="17" height="16" viewBox="0 0 17 16" fill="none" xmlns="http://www.w3.org/2000/svg">
<path fill-rule="evenodd" clip-rule="evenodd" d="M2.83301 7.52724C2.83301 4.82262 5.26029 2.57324 8.33301 2.57324C11.4056 2.57324 13.833 4.82322 13.833 7.52791L13.8331 7.53578C13.828 10.2367 11.4025 12.4819 8.33308 12.4819C7.95491 12.4819 7.58594 12.4463 7.22755 12.3803C7.11102 12.3459 6.98175 12.3537 6.86432 12.412L5.23262 13.2209L5.23249 13.0365V13.0364L5.23249 13.0354C5.23218 12.6109 5.2319 12.2213 5.23227 11.8953C5.23284 11.8689 5.23133 11.8426 5.22778 11.8165C5.22107 11.7667 5.20704 11.7193 5.1868 11.6753C5.15313 11.6017 5.10122 11.5355 5.03247 11.484C5.02508 11.4785 5.01753 11.4731 5.00983 11.468C3.67822 10.5554 2.83301 9.12832 2.83301 7.52726V7.52724ZM8.33301 1.57324C11.8597 1.57324 14.8274 4.17568 14.833 7.51842L14.8331 7.52726C14.8331 10.8746 11.8631 13.4819 8.33308 13.4819C7.93073 13.4819 7.53805 13.4473 7.15668 13.3832L4.9771 14.4637C4.9049 14.5042 4.82162 14.5272 4.73295 14.5272C4.45681 14.5272 4.23295 14.3034 4.23295 14.0272C4.23295 13.6875 4.23271 13.3539 4.23249 13.039C4.23226 12.7154 4.23204 12.4115 4.23211 12.1409C2.78309 11.0601 1.83301 9.40884 1.83301 7.52726V7.52724C1.83301 4.17986 4.80305 1.57324 8.33301 1.57324ZM6.39974 5.33325C6.39974 5.05711 6.6236 4.83325 6.89974 4.83325H9.76641C10.0425 4.83325 10.2664 5.05711 10.2664 5.33325C10.2664 5.60939 10.0425 5.83325 9.76641 5.83325H6.89974C6.6236 5.83325 6.39974 5.60939 6.39974 5.33325ZM5.66634 6.99992C5.3902 6.99992 5.16634 7.22378 5.16634 7.49992C5.16634 7.77606 5.3902 7.99992 5.66634 7.99992H10.9997C11.2758 7.99992 11.4997 7.77606 11.4997 7.49992C11.4997 7.22378 11.2758 6.99992 10.9997 6.99992H5.66634ZM6.89974 9.16659C6.6236 9.16659 6.39974 9.39044 6.39974 9.66659C6.39974 9.94273 6.6236 10.1666 6.89974 10.1666H9.76641C10.0425 10.1666 10.2664 9.94273 10.2664 9.66659C10.2664 9.39044 10.0425 9.16659 9.76641 9.16659H6.89974Z" fill="#6C89A9"/>
</svg>
