<svg width="24" height="25" viewBox="0 0 24 25" fill="none" xmlns="http://www.w3.org/2000/svg">
<path fill-rule="evenodd" clip-rule="evenodd" d="M5.99609 4.74707C3.92503 4.74707 2.24609 6.426 2.24609 8.49707V16.5029C2.24609 18.574 3.92502 20.2529 5.99609 20.2529H18.0036C20.0747 20.2529 21.7536 18.574 21.7536 16.5029V8.49707C21.7536 6.426 20.0747 4.74707 18.0036 4.74707H5.99609ZM3.74609 8.49707C3.74609 7.25443 4.75345 6.24707 5.99609 6.24707H18.0036C19.2462 6.24707 20.2536 7.25443 20.2536 8.49707V16.5029C20.2536 17.7455 19.2462 18.7529 18.0036 18.7529H5.99609C4.75345 18.7529 3.74609 17.7455 3.74609 16.5029V8.49707ZM7.89151 9.61065C7.53892 9.39327 7.07687 9.50288 6.85949 9.85546C6.64211 10.2081 6.75172 10.6701 7.1043 10.8875L10.031 12.6919L10.4246 12.0535L10.031 12.6919C11.238 13.4361 12.7615 13.4361 13.9686 12.6919L13.575 12.0535L13.9686 12.6919L16.8953 10.8875C17.2478 10.6701 17.3575 10.2081 17.1401 9.85546C16.9227 9.50288 16.4606 9.39327 16.1081 9.61065L13.1814 11.415C12.457 11.8617 11.5426 11.8617 10.8182 11.415L7.89151 9.61065Z" fill="#6C89A9"/>
</svg>
