<svg width="20" height="21" viewBox="0 0 20 21" fill="none" xmlns="http://www.w3.org/2000/svg">
<path fill-rule="evenodd" clip-rule="evenodd" d="M11.9389 2.13301C10.6226 1.84036 9.37492 2.84175 9.37492 4.18978V16.2614C9.37492 17.6086 10.6226 18.6101 11.9382 18.3174L15.6407 17.4942C16.6056 17.2808 17.2916 16.4252 17.2916 15.4381V5.01228C17.2916 4.02547 16.6056 3.16976 15.6417 2.95622L11.9389 2.13301ZM15.3701 16.2738L11.6668 17.0972C11.1324 17.2161 10.6249 16.8093 10.6249 16.2614V4.18978C10.6249 3.64115 11.1323 3.2342 11.6676 3.35322L15.3715 4.17667C15.7624 4.26322 16.0416 4.61083 16.0416 5.01228V15.4381C16.0416 15.8394 15.7619 16.1872 15.3701 16.2738ZM13.1249 9.35727C13.1249 9.0121 12.8451 8.73227 12.4999 8.73227C12.1547 8.73227 11.8749 9.0121 11.8749 9.35727V11.0239C11.8749 11.3691 12.1547 11.6489 12.4999 11.6489C12.8451 11.6489 13.1249 11.3691 13.1249 11.0239V9.35727ZM3.33325 12.9156C3.67843 12.9156 3.95825 13.1954 3.95825 13.5406V15.2423C3.95825 15.8179 4.42426 16.284 4.99992 16.284H7.49992C7.8451 16.284 8.12492 16.5638 8.12492 16.909C8.12492 17.2541 7.8451 17.534 7.49992 17.534H4.99992C3.73391 17.534 2.70825 16.5083 2.70825 15.2423V13.5406C2.70825 13.1954 2.98807 12.9156 3.33325 12.9156ZM3.95825 5.20729C3.95825 4.63164 4.42426 4.16562 4.99992 4.16562H7.49992C7.8451 4.16562 8.12492 3.8858 8.12492 3.54062C8.12492 3.19545 7.8451 2.91562 7.49992 2.91562H4.99992C3.73391 2.91562 2.70825 3.94128 2.70825 5.20729V6.87396C2.70825 7.21914 2.98807 7.49896 3.33325 7.49896C3.67843 7.49896 3.95825 7.21914 3.95825 6.87396V5.20729ZM2.70825 10.2073C2.70825 9.86211 2.98807 9.58229 3.33325 9.58229H5.99103L5.39131 8.98257C5.14723 8.73849 5.14723 8.34276 5.39131 8.09868C5.63539 7.85461 6.03112 7.85461 6.27519 8.09868L7.94186 9.76535C8.00178 9.82527 8.04699 9.89434 8.07749 9.96805C8.10805 10.0417 8.12492 10.1225 8.12492 10.2073C8.12492 10.292 8.10805 10.3728 8.07749 10.4465C8.04699 10.5202 8.00178 10.5893 7.94186 10.6492L6.27519 12.3159C6.03112 12.56 5.63539 12.56 5.39131 12.3159C5.14723 12.0718 5.14723 11.6761 5.39131 11.432L5.99103 10.8323H3.33325C2.98807 10.8323 2.70825 10.5525 2.70825 10.2073Z" fill="white"/>
</svg>
