<svg width="20" height="20" viewBox="0 0 20 20" fill="none" xmlns="http://www.w3.org/2000/svg">
<path fill-rule="evenodd" clip-rule="evenodd" d="M2.8888 2.05488C3.13287 1.81081 3.5286 1.81081 3.77268 2.05488L6.4491 4.7313C6.456 4.73789 6.46277 4.74466 6.4694 4.7516L9.13526 7.41747C9.14183 7.42376 9.14828 7.4302 9.1546 7.43681L12.5645 10.8468C12.5712 10.8531 12.5776 10.8595 12.5839 10.8661L15.4319 13.7141C15.4365 13.7186 15.4411 13.7231 15.4456 13.7278L17.9452 16.2275C18.1893 16.4715 18.1893 16.8673 17.9452 17.1113C17.7012 17.3554 17.3054 17.3554 17.0614 17.1113L14.9287 14.9787C13.4736 15.9467 11.7606 16.4648 10.0048 16.4607C6.781 16.5157 3.803 14.743 2.31445 11.8825L2.30838 11.8705C1.72663 10.6913 1.72663 9.3086 2.30838 8.12943L2.31033 8.12547L2.31035 8.12548C2.93362 6.88429 3.86529 5.82994 5.01003 5.06001L2.8888 2.93877C2.64472 2.69469 2.64472 2.29896 2.8888 2.05488ZM5.91389 5.96386C4.85316 6.62291 3.99184 7.56336 3.42843 8.68441C3.0206 9.51256 3.01995 10.483 3.42649 11.3116C4.6982 13.7498 7.23917 15.2598 9.98906 15.2108L10.0021 15.2107C11.4274 15.2151 12.8201 14.8188 14.0241 14.0741L12.1871 12.2371C11.4742 12.9474 10.4467 13.2836 9.42467 13.0992C8.13965 12.8675 7.13388 11.8617 6.90212 10.5767C6.7178 9.55467 7.05393 8.52713 7.76426 7.81423L5.91389 5.96386ZM8.64819 8.69817C8.2229 9.12605 8.02177 9.74209 8.13228 10.3548C8.2714 11.1262 8.87515 11.73 9.64654 11.8691C10.2593 11.9796 10.8753 11.7785 11.3032 11.3532L8.64819 8.69817ZM9.99426 3.5392C13.2186 3.48374 16.1972 5.2565 17.6859 8.11744L17.692 8.12942C18.2738 9.30859 18.2738 10.6913 17.692 11.8705C17.6606 11.9344 17.6263 11.9887 17.6077 12.0184L17.6068 12.0197C17.5831 12.0575 17.5787 12.0647 17.5755 12.0707C17.4142 12.3759 17.0361 12.4926 16.7309 12.3313C16.4257 12.17 16.3091 11.7919 16.4703 11.4867C16.4977 11.4349 16.5281 11.3868 16.5443 11.3613C16.546 11.3585 16.5476 11.356 16.549 11.3538C16.5669 11.3254 16.5702 11.319 16.5702 11.319L16.571 11.3174C16.9798 10.4888 16.9807 9.51756 16.5739 8.68831C15.3022 6.2501 12.7612 4.74012 10.0113 4.78909L10.0002 4.78929V4.78919C9.9013 4.78919 9.82503 4.79627 9.72605 4.80546C9.66058 4.81154 9.58517 4.81855 9.48669 4.82503C9.14226 4.84773 8.84465 4.5869 8.82195 4.24247C8.79926 3.89804 9.06009 3.60043 9.40452 3.57774C9.43872 3.57548 9.48379 3.57149 9.53557 3.5669C9.66778 3.55519 9.84373 3.5396 9.99426 3.5392Z" fill="#6C89A9"/>
</svg>
