<svg width="17" height="16" viewBox="0 0 17 16" fill="none" xmlns="http://www.w3.org/2000/svg">
<path fill-rule="evenodd" clip-rule="evenodd" d="M3.07948 6.94521C3.99833 5.06688 6.04623 3.8335 8.33301 3.8335C10.6198 3.8335 12.6677 5.06688 13.5865 6.94521C13.7496 7.27849 13.833 7.63811 13.833 8.00016C13.833 8.36221 13.7496 8.72184 13.5865 9.05512C12.6677 10.9334 10.6198 12.1668 8.33301 12.1668C6.04623 12.1668 3.99833 10.9334 3.07948 9.05512C2.91645 8.72184 2.83301 8.36221 2.83301 8.00016C2.83301 7.63811 2.91645 7.27849 3.07948 6.94521ZM8.33301 2.8335C5.69845 2.8335 3.28236 4.25478 2.1812 6.50578C1.95224 6.97384 1.83301 7.48355 1.83301 8.00016C1.83301 8.51678 1.95224 9.02649 2.1812 9.49454C3.28236 11.7455 5.69845 13.1668 8.33301 13.1668C10.9676 13.1668 13.3837 11.7455 14.4848 9.49454C14.7138 9.02649 14.833 8.51678 14.833 8.00016C14.833 7.48355 14.7138 6.97384 14.4848 6.50578C13.3837 4.25478 10.9676 2.8335 8.33301 2.8335ZM7.27141 6.94022C7.85824 6.35356 8.80809 6.35383 9.39399 6.94023L9.39414 6.94038C9.97928 7.52552 9.97981 8.47627 9.39414 9.06327C8.80897 9.64844 7.85815 9.64894 7.27116 9.06318C6.68606 8.47799 6.68561 7.52718 7.27141 6.94022ZM6.56414 6.23327C7.54108 5.25633 9.1239 5.25588 10.1007 6.2327L10.1014 6.23342C11.0773 7.20953 11.0769 8.7931 10.1015 9.77008L10.1012 9.77038C9.12515 10.7465 7.54147 10.746 6.56444 9.77068L6.56414 9.77038C5.58805 8.79428 5.58848 7.2106 6.56384 6.23357L6.56414 6.23327Z" fill="#6C89A9"/>
</svg>
