<svg width="239" height="133" viewBox="0 0 239 133" fill="none" xmlns="http://www.w3.org/2000/svg">
<g clip-path="url(#clip0_3214_1004)">
<path d="M104.794 51.9845C104.47 53.1728 104.146 54.4691 103.714 55.9814C103.39 57.3858 102.85 59.0061 102.418 60.9506H112.894L113.434 59.0061H108.142L109.222 55.1172H116.026C117.538 55.1172 118.51 56.3055 118.078 57.9259L117.322 60.9506L116.89 62.4629C116.458 63.9752 114.946 65.2715 113.326 65.2715H98.6384C97.1265 65.2715 96.1545 64.0833 96.5865 62.4629L99.8264 50.2561C100.258 48.7438 101.878 47.4475 103.39 47.4475H120.238L119.05 51.8765C114.082 51.9845 109.654 51.9845 104.794 51.9845ZM165.921 60.4104L166.677 56.7376L165.597 58.2499L162.573 62.0308H162.465L159.873 65.2715H154.257L153.501 62.0308H153.393L152.421 58.2499L152.097 56.7376L150.909 60.4104L149.397 65.2715H144.105L149.721 47.5555H155.445L158.577 59.9783L168.405 47.5555H174.129L170.241 65.2715H164.949L165.921 60.4104ZM181.364 54.4691C181.58 53.4969 181.688 52.9568 182.012 51.9845H197.672L198.86 47.5555H180.824C179.204 47.5555 177.584 48.8518 177.153 50.4722C176.613 52.4166 176.073 54.4691 175.533 56.4135C174.993 58.358 174.453 60.4104 173.913 62.3549C173.481 63.9752 174.453 65.2715 176.073 65.2715H194.108L195.296 60.8425H179.636C179.744 60.3024 179.852 59.8703 179.96 59.5462C180.068 59.1141 180.176 58.7901 180.284 58.2499H192.056L193.028 54.4691H181.364V54.4691ZM133.306 52.8487L134.818 58.574H128.77L133.306 52.8487ZM136.438 65.2715H142.161L137.625 47.4475H132.01L117.754 65.2715H123.478L125.746 62.4629H135.682L136.438 65.2715Z" fill="black"/>
<path d="M129.634 80.1787C130.93 80.1787 132.334 78.9905 132.766 77.3701C132.874 76.938 132.982 76.5059 133.09 75.9658C133.414 74.5615 133.846 72.9411 134.17 71.6448C134.601 70.0245 133.846 68.8362 132.55 68.8362H116.674L115.594 73.2652H129.094L128.446 75.7497H117.322C116.026 75.7497 114.622 76.938 114.19 78.5584C113.866 79.9627 113.542 81.259 113.11 82.6633C112.786 84.0676 112.354 85.3639 112.03 86.7682H116.674C116.998 85.58 117.214 84.4997 117.538 83.5275C117.862 82.4473 118.078 81.475 118.402 80.2868H129.634V80.1787ZM152.637 69.0522H139.137C137.841 69.0522 136.437 70.3485 136.005 71.9689C135.465 73.9133 135.033 75.9658 134.494 77.9102C133.954 79.9627 133.522 81.9071 132.982 83.8516C132.658 85.4719 133.414 86.7682 134.709 86.7682H148.209C149.505 86.7682 150.909 85.4719 151.341 83.8516C151.881 81.9071 152.313 79.8547 152.853 77.9102C153.393 75.8578 153.825 73.9133 154.365 71.9689C154.797 70.3485 154.041 69.0522 152.637 69.0522ZM148.749 77.046C148.425 78.2343 148.317 78.7744 147.345 82.3392H137.841C138.381 80.3948 138.597 79.3145 138.813 78.6664C139.245 77.2621 139.245 76.938 140.217 73.3732H149.721C149.181 75.4257 148.857 76.3979 148.749 77.046ZM171.429 86.7682H166.785L165.381 79.7466H159.765C159.117 82.1232 158.469 84.4997 157.929 86.8763H153.285C154.041 84.1756 154.689 81.475 155.445 78.7744C155.877 77.1541 157.173 75.9658 158.577 75.9658C160.413 75.9658 162.249 75.9658 164.193 75.9658C166.029 75.9658 167.865 75.9658 169.809 75.9658L170.457 73.4812H156.957L158.037 69.0522H173.913C175.101 69.0522 175.964 70.2405 175.532 71.8609L174.237 76.83C173.805 78.4504 172.509 79.6386 171.105 79.6386H170.241L171.429 86.7682ZM110.086 75.4257C111.382 75.4257 112.138 76.6139 111.706 78.2343C111.598 78.6664 111.49 79.0985 111.382 79.6386C111.058 81.0429 110.626 82.6633 110.302 83.9596C109.87 85.58 108.574 86.7682 107.17 86.7682H91.7266L92.8065 82.3392H105.874L106.522 79.8547H95.3985C94.1025 79.8547 93.3465 78.6664 93.7785 77.046C93.9945 76.1818 94.2105 75.3176 94.4265 74.3454C94.6425 73.4812 94.8585 72.509 95.0745 71.6448C95.5065 70.1325 96.8024 68.9442 98.0984 68.9442H113.434L112.354 73.3732H99.3944L98.8544 75.4257H110.086ZM192.92 73.3732L194.108 68.9442H177.368L176.18 73.3732H182.336L178.88 86.7682H183.308L186.764 73.3732H192.92Z" fill="#F5333F"/>
<path d="M40.2125 88.3887C39.9965 89.361 40.4284 91.3054 42.1564 91.7375C42.1564 91.7375 42.2644 91.7375 42.3724 91.7375C44.6403 92.1696 46.4763 90.7653 47.3403 90.2252C51.7682 87.5246 53.8201 85.9042 55.6561 85.256C58.14 84.3918 60.7319 84.7159 62.4599 85.04C64.0799 85.5801 66.5638 86.5523 68.2918 88.6048C69.5877 90.1171 70.5597 92.6017 73.0436 97.1387C73.5836 98.0029 74.4476 100.163 76.6076 100.92C76.6076 100.92 76.7155 100.92 76.8235 100.92C78.5515 101.352 79.8475 99.9474 80.1715 98.9751C80.7114 97.3548 83.1954 84.4999 82.8714 81.3672C82.7634 79.3147 81.6834 76.9382 79.6315 75.3178C80.0635 71.861 79.4155 69.3764 78.5515 66.2437C80.1715 64.7314 81.3594 62.787 81.8994 60.5184C82.7634 57.6018 82.3314 54.5771 81.1434 51.9845C81.5754 41.2901 76.8235 32 76.8235 32C76.8235 32 68.0758 37.6173 62.8919 47.2314C60.516 48.8518 58.788 51.3364 57.924 54.253C57.276 56.5215 57.384 58.8981 57.924 60.9505C55.5481 63.2191 53.8201 65.0555 52.4162 68.1882C49.9322 68.4042 47.8803 70.0246 46.6923 71.645C44.8563 74.3456 40.6444 86.7684 40.2125 88.3887ZM71.2077 73.8055C69.3717 73.6974 67.5358 73.4814 65.8078 72.9413C64.0799 72.5092 62.3519 71.753 60.7319 70.8888C60.6239 69.2684 60.6239 67.54 60.7319 65.5956C62.3519 67.324 64.4039 68.7283 66.7798 69.3764C69.2637 70.0246 71.7477 69.9166 74.0156 69.1604C73.0436 70.8888 72.1797 72.5092 71.2077 73.8055ZM66.6718 45.5031C67.7518 43.8827 68.9397 42.3703 70.1277 41.0741L78.1195 43.2345C78.4435 44.9629 78.7675 46.7993 78.8755 48.8518C77.3635 47.3395 75.5276 46.1512 73.2596 45.5031C70.9917 44.8549 68.7237 44.9629 66.6718 45.5031ZM72.6117 47.6635C78.0115 49.1759 81.2514 54.6851 79.7395 60.0863C78.2275 65.4876 72.7196 68.7283 67.3198 67.216C61.9199 65.7036 58.68 60.1944 60.192 54.7932C61.5959 49.3919 67.2118 46.2592 72.6117 47.6635ZM77.1475 81.9073C78.0115 82.1233 78.4435 82.9875 78.2275 83.7437C78.0115 84.6079 77.1475 85.04 76.3916 84.8239C75.5276 84.6079 75.0956 83.7437 75.3116 82.9875C75.5276 82.2314 76.2836 81.6912 77.1475 81.9073ZM74.6636 77.5863C75.5276 77.8024 75.9596 78.6666 75.7436 79.4227C75.5276 80.2869 74.6636 80.719 73.9076 80.503C73.0436 80.2869 72.6117 79.4227 72.8276 78.6665C72.9356 77.9104 73.7996 77.3703 74.6636 77.5863ZM72.7196 84.3918C73.5836 84.6079 74.0156 85.4721 73.7996 86.2283C73.5836 87.0925 72.7196 87.5246 71.9637 87.3085C71.0997 87.0925 70.6677 86.2283 70.8837 85.4721C71.0997 84.7159 71.9637 84.1758 72.7196 84.3918ZM70.2357 80.0709C71.0997 80.2869 71.5317 81.1511 71.3157 81.9073C71.0997 82.6635 70.2357 83.2036 69.4797 82.9875C68.6158 82.7715 68.1838 81.9073 68.3998 81.1511C68.6158 80.3949 69.4797 79.8548 70.2357 80.0709ZM49.8242 75.4258C49.9322 75.1017 50.3642 74.7777 50.6882 74.8857L53.0641 75.5338L53.7121 73.1573C53.8201 72.8332 54.2521 72.5092 54.5761 72.6172L55.9801 72.9413C56.3041 73.0493 56.628 73.4814 56.52 73.8055L55.7641 76.29L58.14 76.9382C58.464 77.0462 58.788 77.4783 58.68 77.8024L58.248 79.2067C58.14 79.5307 57.708 79.8548 57.384 79.7468L55.0081 79.0986L54.3601 81.4752C54.2521 81.7993 53.8201 82.1233 53.4961 82.0153L52.0922 81.6912C51.7682 81.5832 51.4442 81.1511 51.5522 80.827L52.2002 78.4505L49.9322 77.6943C49.6082 77.5863 49.2842 77.1542 49.3922 76.8301L49.8242 75.4258Z" fill="#F5333F"/>
<path d="M64.4035 89.2529C63.8635 91.1973 61.4876 92.7097 60.1916 94.114C59.7596 92.1695 58.4637 89.685 58.8956 87.7405C58.8956 87.5245 59.1116 87.2004 59.2196 86.9844C58.0317 87.5245 57.0597 88.6047 56.7357 89.901C55.8717 93.2498 57.7077 97.3547 58.3557 100.595C60.5156 98.1109 64.2955 95.6263 65.1595 92.2776C65.4835 90.8733 65.1595 89.577 64.4035 88.4967C64.5115 88.7128 64.4035 89.0368 64.4035 89.2529Z" fill="black"/>
<path d="M71.4234 52.0925C74.4474 52.9567 76.1753 55.9814 75.4193 58.898C74.5554 61.9227 71.5314 63.6511 68.6155 62.8949C65.6996 62.1388 63.8636 59.006 64.6196 56.0894C65.3756 53.0647 68.3995 51.2283 71.4234 52.0925Z" fill="black"/>
</g>
<defs>
<clipPath id="clip0_3214_1004">
<rect width="158.7" height="69" fill="white" transform="translate(40.1611 32)"/>
</clipPath>
</defs>
</svg>
