<svg width="239" height="133" viewBox="0 0 239 133" fill="none" xmlns="http://www.w3.org/2000/svg">
<g clip-path="url(#clip0_3131_624)">
<path d="M104.795 51.9845C104.471 53.1728 104.147 54.4691 103.715 55.9814C103.391 57.3858 102.851 59.0061 102.419 60.9506H112.895L113.435 59.0061H108.143L109.223 55.1172H116.026C117.538 55.1172 118.51 56.3055 118.078 57.9259L117.322 60.9506L116.89 62.4629C116.458 63.9752 114.947 65.2715 113.327 65.2715H98.6389C97.127 65.2715 96.155 64.0833 96.587 62.4629L99.8269 50.2561C100.259 48.7438 101.879 47.4475 103.391 47.4475H120.238L119.05 51.8765C114.083 51.9845 109.655 51.9845 104.795 51.9845ZM165.921 60.4104L166.677 56.7376L165.597 58.2499L162.573 62.0308H162.465L159.873 65.2715H154.258L153.502 62.0308H153.394L152.422 58.2499L152.098 56.7376L150.91 60.4104L149.398 65.2715H144.106L149.722 47.5555H155.446L158.577 59.9783L168.405 47.5555H174.129L170.241 65.2715H164.949L165.921 60.4104ZM181.365 54.4691C181.581 53.4969 181.689 52.9568 182.013 51.9845H197.672L198.86 47.5555H180.825C179.205 47.5555 177.585 48.8518 177.153 50.4722C176.613 52.4166 176.073 54.4691 175.533 56.4135C174.993 58.358 174.453 60.4104 173.913 62.3549C173.481 63.9752 174.453 65.2715 176.073 65.2715H194.109L195.297 60.8425H179.637C179.745 60.3024 179.853 59.8703 179.961 59.5462C180.069 59.1141 180.177 58.7901 180.285 58.2499H192.057L193.029 54.4691H181.365V54.4691ZM133.306 52.8487L134.818 58.574H128.77L133.306 52.8487ZM136.438 65.2715H142.162L137.626 47.4475H132.01L117.754 65.2715H123.478L125.746 62.4629H135.682L136.438 65.2715Z" fill="white"/>
<path d="M129.634 80.179C130.93 80.179 132.334 78.9907 132.766 77.3704C132.874 76.9383 132.982 76.5062 133.09 75.966C133.414 74.5617 133.846 72.9414 134.17 71.6451C134.602 70.0247 133.846 68.8364 132.55 68.8364H116.674L115.594 73.2654H129.094L128.446 75.75H117.322C116.026 75.75 114.622 76.9383 114.19 78.5586C113.867 79.9629 113.543 81.2592 113.111 82.6636C112.787 84.0679 112.355 85.3642 112.031 86.7685H116.674C116.998 85.5802 117.214 84.5 117.538 83.5277C117.862 82.4475 118.078 81.4753 118.402 80.287H129.634V80.179ZM152.638 69.0525H139.138C137.842 69.0525 136.438 70.3488 136.006 71.9691C135.466 73.9136 135.034 75.966 134.494 77.9105C133.954 79.9629 133.522 81.9074 132.982 83.8518C132.658 85.4722 133.414 86.7685 134.71 86.7685H148.21C149.506 86.7685 150.91 85.4722 151.342 83.8518C151.882 81.9074 152.314 79.8549 152.854 77.9105C153.394 75.858 153.826 73.9136 154.365 71.9691C154.797 70.3488 154.042 69.0525 152.638 69.0525ZM148.75 77.0463C148.426 78.2346 148.318 78.7747 147.346 82.3395H137.842C138.382 80.395 138.598 79.3148 138.814 78.6666C139.246 77.2623 139.246 76.9383 140.218 73.3735H149.722C149.182 75.4259 148.858 76.3981 148.75 77.0463ZM171.429 86.7685H166.785L165.381 79.7469H159.765C159.117 82.1234 158.469 84.5 157.929 86.8765H153.286C154.042 84.1759 154.689 81.4753 155.445 78.7747C155.877 77.1543 157.173 75.966 158.577 75.966C160.413 75.966 162.249 75.966 164.193 75.966C166.029 75.966 167.865 75.966 169.809 75.966L170.457 73.4815H156.957L158.037 69.0525H173.913C175.101 69.0525 175.965 70.2407 175.533 71.8611L174.237 76.8302C173.805 78.4506 172.509 79.6389 171.105 79.6389H170.241L171.429 86.7685ZM110.087 75.4259C111.383 75.4259 112.139 76.6142 111.707 78.2345C111.599 78.6666 111.491 79.0987 111.383 79.6389C111.059 81.0432 110.627 82.6635 110.303 83.9598C109.871 85.5802 108.575 86.7685 107.171 86.7685H91.7271L92.807 82.3395H105.875L106.523 79.8549H95.399C94.103 79.8549 93.347 78.6666 93.779 77.0463C93.995 76.1821 94.211 75.3179 94.427 74.3457C94.643 73.4815 94.859 72.5093 95.075 71.6451C95.507 70.1327 96.8029 68.9445 98.0989 68.9445H113.435L112.355 73.3735H99.3949L98.8549 75.4259H110.087ZM192.921 73.3735L194.109 68.9445H177.369L176.181 73.3735H182.337L178.881 86.7685H183.309L186.765 73.3735H192.921Z" fill="#F5333F"/>
<path d="M40.2129 88.3887C39.9969 89.361 40.4289 91.3054 42.1569 91.7375C42.1569 91.7375 42.2649 91.7375 42.3729 91.7375C44.6408 92.1696 46.4768 90.7653 47.3408 90.2252C51.7687 87.5246 53.8206 85.9042 55.6566 85.256C58.1405 84.3918 60.7324 84.7159 62.4604 85.04C64.0804 85.5801 66.5643 86.5523 68.2922 88.6048C69.5882 90.1171 70.5602 92.6017 73.0441 97.1387C73.5841 98.0029 74.4481 100.163 76.608 100.92C76.608 100.92 76.716 100.92 76.824 100.92C78.552 101.352 79.848 99.9474 80.172 98.9751C80.7119 97.3548 83.1959 84.4999 82.8719 81.3672C82.7639 79.3147 81.6839 76.9382 79.632 75.3178C80.064 71.861 79.416 69.3764 78.552 66.2437C80.172 64.7314 81.3599 62.787 81.8999 60.5184C82.7639 57.6018 82.3319 54.5771 81.1439 51.9845C81.5759 41.2901 76.824 32 76.824 32C76.824 32 68.0763 37.6173 62.8924 47.2314C60.5164 48.8518 58.7885 51.3364 57.9245 54.253C57.2765 56.5215 57.3845 58.8981 57.9245 60.9505C55.5486 63.2191 53.8206 65.0555 52.4166 68.1882C49.9327 68.4042 47.8808 70.0246 46.6928 71.645C44.8568 74.3456 40.6449 86.7684 40.2129 88.3887ZM71.2082 73.8055C69.3722 73.6974 67.5363 73.4814 65.8083 72.9413C64.0804 72.5092 62.3524 71.753 60.7324 70.8888C60.6244 69.2684 60.6244 67.54 60.7324 65.5956C62.3524 67.324 64.4043 68.7283 66.7803 69.3764C69.2642 70.0246 71.7482 69.9166 74.0161 69.1604C73.0441 70.8888 72.1802 72.5092 71.2082 73.8055ZM66.6723 45.5031C67.7523 43.8827 68.9402 42.3703 70.1282 41.0741L78.12 43.2345C78.444 44.9629 78.768 46.7993 78.876 48.8518C77.364 47.3395 75.5281 46.1512 73.2601 45.5031C70.9922 44.8549 68.7242 44.9629 66.6723 45.5031ZM72.6121 47.6635C78.012 49.1759 81.2519 54.6851 79.74 60.0863C78.228 65.4876 72.7201 68.7283 67.3203 67.216C61.9204 65.7036 58.6805 60.1944 60.1924 54.7932C61.5964 49.3919 67.2123 46.2592 72.6121 47.6635ZM77.148 81.9073C78.012 82.1233 78.444 82.9875 78.228 83.7437C78.012 84.6079 77.148 85.04 76.392 84.8239C75.5281 84.6079 75.0961 83.7437 75.3121 82.9875C75.5281 82.2314 76.284 81.6912 77.148 81.9073ZM74.6641 77.5863C75.5281 77.8024 75.9601 78.6666 75.7441 79.4227C75.5281 80.2869 74.6641 80.719 73.9081 80.503C73.0441 80.2869 72.6121 79.4227 72.8281 78.6665C72.9361 77.9104 73.8001 77.3703 74.6641 77.5863ZM72.7201 84.3918C73.5841 84.6079 74.0161 85.4721 73.8001 86.2283C73.5841 87.0925 72.7201 87.5246 71.9642 87.3085C71.1002 87.0925 70.6682 86.2283 70.8842 85.4721C71.1002 84.7159 71.9642 84.1758 72.7201 84.3918ZM70.2362 80.0709C71.1002 80.2869 71.5322 81.1511 71.3162 81.9073C71.1002 82.6635 70.2362 83.2036 69.4802 82.9875C68.6162 82.7715 68.1842 81.9073 68.4002 81.1511C68.6162 80.3949 69.4802 79.8548 70.2362 80.0709ZM49.8247 75.4258C49.9327 75.1017 50.3647 74.7777 50.6887 74.8857L53.0646 75.5338L53.7126 73.1573C53.8206 72.8332 54.2526 72.5092 54.5766 72.6172L55.9806 72.9413C56.3045 73.0493 56.6285 73.4814 56.5205 73.8055L55.7646 76.29L58.1405 76.9382C58.4645 77.0462 58.7885 77.4783 58.6805 77.8024L58.2485 79.2067C58.1405 79.5307 57.7085 79.8548 57.3845 79.7468L55.0086 79.0986L54.3606 81.4752C54.2526 81.7993 53.8206 82.1233 53.4966 82.0153L52.0926 81.6912C51.7687 81.5832 51.4447 81.1511 51.5527 80.827L52.2006 78.4505L49.9327 77.6943C49.6087 77.5863 49.2847 77.1542 49.3927 76.8301L49.8247 75.4258Z" fill="#F5333F"/>
<path d="M64.404 89.2531C63.864 91.1976 61.4881 92.7099 60.1921 94.1142C59.7601 92.1698 58.4641 89.6852 58.8961 87.7408C58.8961 87.5247 59.1121 87.2007 59.2201 86.9846C58.0322 87.5247 57.0602 88.605 56.7362 89.9013C55.8722 93.25 57.7082 97.355 58.3561 100.596C60.5161 98.1111 64.296 95.6266 65.16 92.2778C65.484 90.8735 65.16 89.5772 64.404 88.497C64.512 88.713 64.404 89.0371 64.404 89.2531Z" fill="white"/>
<path d="M71.4239 52.0925C74.4479 52.9567 76.1758 55.9814 75.4198 58.898C74.5558 61.9227 71.5319 63.6511 68.616 62.8949C65.7001 62.1387 63.8641 59.006 64.6201 56.0894C65.3761 53.0647 68.4 51.2283 71.4239 52.0925Z" fill="white"/>
</g>
<defs>
<clipPath id="clip0_3131_624">
<rect width="158.7" height="69" fill="white" transform="translate(40.1616 32)"/>
</clipPath>
</defs>
</svg>
