<svg width="212" height="96" viewBox="0 0 212 96" fill="none" xmlns="http://www.w3.org/2000/svg">
<g clip-path="url(#clip0_3579_2123)">
<path d="M86.3404 19.497C85.9076 21.1489 85.4748 22.951 84.8977 25.0535C84.4649 27.0058 83.7436 29.2584 83.1665 31.9616H97.1606L97.8819 29.2584H90.8127L92.2554 23.8521H101.344C103.364 23.8521 104.663 25.504 104.085 27.7567L103.076 31.9616L102.498 34.0641C101.921 36.1665 99.9016 37.9686 97.7376 37.9686H78.1171C76.0973 37.9686 74.7989 36.3167 75.376 34.0641L79.704 17.0942C80.2811 14.9917 82.4451 13.1896 84.4649 13.1896H106.971L105.384 19.3468C98.7475 19.497 92.8325 19.497 86.3404 19.497ZM167.996 31.2107L169.006 26.1047L167.564 28.2072L163.524 33.4633H163.38L159.917 37.9686H152.415L151.406 33.4633H151.261L149.963 28.2072L149.53 26.1047L147.943 31.2107L145.923 37.9686H138.854L146.356 13.3398H154.002L158.186 30.61L171.315 13.3398H178.961L173.767 37.9686H166.698L167.996 31.2107ZM188.627 22.951C188.915 21.5994 189.06 20.8486 189.492 19.497H210.411L211.998 13.3398H187.906C185.741 13.3398 183.577 15.1419 183 17.3945C182.279 20.0977 181.558 22.951 180.836 25.6542C180.115 28.3574 179.394 31.2107 178.672 33.9139C178.095 36.1665 179.394 37.9686 181.558 37.9686H205.651L207.238 31.8114H186.319C186.463 31.0605 186.607 30.4598 186.751 30.0093C186.896 29.4086 187.04 28.9581 187.184 28.2072H202.909L204.208 22.951H188.627V22.951ZM124.427 20.6984L126.447 28.6577H118.368L124.427 20.6984ZM128.611 37.9686H136.257L130.198 13.1896H122.696L103.653 37.9686H111.299L114.329 34.0641H127.601L128.611 37.9686Z" fill="white"/>
<path d="M119.522 58.6928C121.253 58.6928 123.129 57.0409 123.706 54.7882C123.85 54.1875 123.994 53.5868 124.139 52.8359C124.571 50.8837 125.149 48.631 125.581 46.8289C126.158 44.5763 125.149 42.9243 123.417 42.9243H102.21L100.767 49.0815H118.801L117.935 52.5356H103.075C101.344 52.5356 99.4687 54.1875 98.8917 56.4402C98.4589 58.3925 98.0261 60.1946 97.449 62.1469C97.0162 64.0991 96.4391 65.9013 96.0063 67.8535H102.21C102.643 66.2016 102.931 64.6999 103.364 63.3483C103.797 61.8465 104.085 60.4949 104.518 58.843H119.522V58.6928ZM150.251 43.2247H132.218C130.486 43.2247 128.611 45.0268 128.034 47.2794C127.313 49.9826 126.736 52.8359 126.014 55.5391C125.293 58.3925 124.716 61.0956 123.994 63.7988C123.562 66.0514 124.571 67.8535 126.303 67.8535H144.336C146.068 67.8535 147.943 66.0514 148.52 63.7988C149.241 61.0956 149.819 58.2423 150.54 55.5391C151.261 52.6858 151.838 49.9826 152.56 47.2794C153.137 45.0268 152.127 43.2247 150.251 43.2247ZM145.058 54.3377C144.625 55.9896 144.481 56.7405 143.182 61.6963H130.487C131.208 58.9932 131.496 57.4914 131.785 56.5903C132.362 54.6381 132.362 54.1875 133.66 49.2317H146.356C145.635 52.0851 145.202 53.4366 145.058 54.3377ZM175.354 67.8535H169.15L167.275 58.0921H159.773C158.907 61.396 158.042 64.6998 157.32 68.0037H151.117C152.127 64.2493 152.992 60.4949 154.002 56.7405C154.579 54.4879 156.311 52.8359 158.186 52.8359C160.639 52.8359 163.091 52.8359 165.688 52.8359C168.141 52.8359 170.593 52.8359 173.19 52.8359L174.056 49.3819H156.022L157.465 43.2247H178.672C180.259 43.2247 181.413 44.8766 180.836 47.1293L179.105 54.0373C178.528 56.29 176.797 57.9419 174.921 57.9419H173.767L175.354 67.8535ZM93.4095 52.0851C95.1407 52.0851 96.1506 53.737 95.5735 55.9896C95.4292 56.5903 95.285 57.191 95.1407 57.9419C94.7079 59.8942 94.1308 62.1469 93.698 63.949C93.1209 66.2016 91.3897 67.8535 89.5142 67.8535H68.8838L70.3265 61.6963H87.783L88.6486 58.2423H73.7889C72.0577 58.2423 71.0478 56.5903 71.6249 54.3377C71.9134 53.1363 72.202 51.9349 72.4905 50.5833C72.779 49.3819 73.0676 48.0303 73.3561 46.8289C73.9332 44.7264 75.6644 43.0745 77.3956 43.0745H97.8818L96.4391 49.2317H79.1269L78.4055 52.0851H93.4095ZM204.064 49.2317L205.65 43.0745H183.289L181.702 49.2317H189.925L185.309 67.8535H191.224L195.84 49.2317H204.064Z" fill="#F5333F"/>
<path d="M0.0685577 78.3919C-0.21998 79.7435 0.357095 82.4467 2.66539 83.0474C2.66539 83.0474 2.80966 83.0474 2.95393 83.0474C5.98357 83.6481 8.43614 81.6958 9.59029 80.9449C15.5053 77.1905 18.2464 74.9379 20.699 74.0368C24.0172 72.8354 27.4796 73.2859 29.7879 73.7365C31.9519 74.4874 35.2701 75.8389 37.5784 78.6923C39.3096 80.7948 40.6081 84.2488 43.9262 90.5562C44.6476 91.7576 45.8017 94.7611 48.6871 95.8124C48.6871 95.8124 48.8314 95.8124 48.9756 95.8124C51.2839 96.4131 53.0152 94.4608 53.448 93.1092C54.1693 90.8566 57.4875 72.9856 57.0547 68.6305C56.9104 65.7771 55.4677 62.4733 52.7266 60.2206C53.3037 55.415 52.4381 51.9609 51.2839 47.6058C53.448 45.5034 55.0349 42.8002 55.7563 39.6465C56.9104 35.5917 56.3333 31.3868 54.7464 27.7826C55.3235 12.9151 48.9756 0 48.9756 0C48.9756 0 37.2899 7.80916 30.365 21.1748C27.1911 23.4275 24.8828 26.8815 23.7286 30.9363C22.863 34.09 23.0073 37.3939 23.7286 40.2472C20.5547 43.4009 18.2464 45.9539 16.3709 50.309C13.0527 50.6094 10.3116 52.862 8.72468 55.1146C6.27211 58.869 0.645632 76.1393 0.0685577 78.3919ZM41.4737 58.1182C39.0211 57.968 36.5685 57.6676 34.2602 56.9168C31.9519 56.316 29.6436 55.2648 27.4796 54.0634C27.3353 51.8108 27.3353 49.4079 27.4796 46.7048C29.6436 49.1076 32.3847 51.0599 35.5586 51.9609C38.8768 52.862 42.195 52.7118 45.2246 51.6606C43.9262 54.0634 42.7721 56.316 41.4737 58.1182ZM35.4144 18.772C36.8571 16.5194 38.444 14.4169 40.031 12.6148L50.7069 15.6183C51.1397 18.0211 51.5725 20.5741 51.7167 23.4275C49.697 21.325 47.2444 19.6731 44.2148 18.772C41.1851 17.871 38.1555 18.0211 35.4144 18.772ZM43.3492 21.7755C50.5626 23.878 54.8906 31.537 52.8709 39.0458C50.8511 46.5546 43.4934 51.0599 36.28 48.9574C29.0666 46.8549 24.7385 39.196 26.7583 31.6872C28.6338 24.1784 36.1357 19.8232 43.3492 21.7755ZM49.4084 69.3814C50.5626 69.6817 51.1397 70.8831 50.8511 71.9344C50.5626 73.1358 49.4084 73.7365 48.3986 73.4361C47.2444 73.1358 46.6673 71.9344 46.9559 70.8831C47.2444 69.8319 48.2543 69.081 49.4084 69.3814ZM46.0903 63.3743C47.2444 63.6747 47.8215 64.8761 47.5329 65.9273C47.2444 67.1287 46.0903 67.7294 45.0804 67.4291C43.9262 67.1287 43.3492 65.9273 43.6377 64.8761C43.782 63.8249 44.9361 63.074 46.0903 63.3743ZM43.4934 72.8354C44.6476 73.1358 45.2246 74.3372 44.9361 75.3884C44.6476 76.5898 43.4934 77.1905 42.4835 76.8902C41.3294 76.5898 40.7523 75.3884 41.0409 74.3372C41.3294 73.2859 42.4835 72.5351 43.4934 72.8354ZM40.1752 66.8284C41.3294 67.1287 41.9065 68.3301 41.6179 69.3814C41.3294 70.4326 40.1752 71.1835 39.1654 70.8831C38.0112 70.5828 37.4341 69.3814 37.7227 68.3301C38.0112 67.2789 39.1654 66.528 40.1752 66.8284ZM12.9085 60.3708C13.0527 59.9203 13.6298 59.4697 14.0626 59.6199L17.2365 60.521L18.1021 57.2171C18.2464 56.7666 18.8235 56.316 19.2563 56.4662L21.1318 56.9168C21.5646 57.0669 21.9974 57.6676 21.8531 58.1182L20.8432 61.5722L24.0172 62.4733C24.45 62.6234 24.8828 63.2241 24.7385 63.6747L24.1614 65.627C24.0172 66.0775 23.4401 66.528 23.0073 66.3778L19.8334 65.4768L18.9678 68.7807C18.8235 69.2312 18.2464 69.6817 17.8136 69.5315L15.9381 69.081C15.5053 68.9308 15.0725 68.3301 15.2168 67.8796L16.0824 64.5757L13.0527 63.5245C12.6199 63.3743 12.1871 62.7736 12.3314 62.3231L12.9085 60.3708Z" fill="#F5333F"/>
<path d="M32.3841 79.5935C31.6627 82.2966 28.4888 84.3991 26.7576 86.3514C26.1805 83.6482 24.4493 80.1942 25.0264 77.491C25.0264 77.1906 25.3149 76.7401 25.4592 76.4398C23.8722 77.1906 22.5738 78.6924 22.141 80.4945C20.9869 85.15 23.4394 90.8567 24.305 95.3619C27.1904 91.9079 32.2398 88.4538 33.394 83.7984C33.8268 81.8461 33.394 80.044 32.3841 78.5422C32.5284 78.8426 32.3841 79.2931 32.3841 79.5935Z" fill="white"/>
<path d="M41.7614 27.9327C45.8009 29.1341 48.1092 33.3391 47.0993 37.3938C45.9452 41.5987 41.9056 44.0016 38.0104 42.9503C34.1151 41.8991 31.6626 37.544 32.6724 33.4892C33.6823 29.2843 37.7218 26.7313 41.7614 27.9327Z" fill="white"/>
<path fill-rule="evenodd" clip-rule="evenodd" d="M195.727 77.8743C196.799 77.8743 197.482 78.7804 197.19 79.9887C196.897 81.1969 196.409 82.9085 196.117 84.2174C195.824 85.3249 194.654 86.3317 193.581 86.3317C188.996 86.3317 184.802 86.3317 180.315 86.3317L181.193 83.1098C185.095 83.1098 188.606 83.1098 192.508 83.1098L192.995 81.2975C189.777 81.2975 186.558 81.2975 183.339 81.2975C182.266 81.2975 181.583 80.3914 181.876 79.1832C182.266 77.8743 182.559 76.4647 182.949 75.1558C183.242 74.0483 184.412 73.1422 185.485 73.1422C190.069 73.1422 194.166 73.1422 198.75 73.1422L197.872 76.364H186.558L186.168 77.975H195.727V77.8743Z" fill="white"/>
<path fill-rule="evenodd" clip-rule="evenodd" d="M174.44 86.3317H178.5L177.147 81.0359H177.92C178.983 81.0359 180.143 80.1366 180.433 78.9376C180.723 77.7385 181.11 76.4395 181.4 75.2405C181.69 74.1414 181.013 73.1422 179.95 73.1422C175.407 73.1422 170.863 73.1422 166.416 73.1422L165.546 76.3396C169.413 76.3396 173.28 76.3396 177.147 76.3396L176.663 78.1382C173.473 78.1382 170.283 78.1382 167.093 78.1382C166.03 78.1382 164.869 79.0375 164.579 80.2365C164.096 82.235 163.516 84.2334 163.033 86.2318H166.996C167.48 84.5331 167.866 82.7346 168.35 81.0359C169.993 81.0359 171.54 81.0359 173.183 81.0359L174.44 86.3317Z" fill="white"/>
<path fill-rule="evenodd" clip-rule="evenodd" d="M152.13 76.364C151.935 77.0688 151.838 77.4716 151.643 78.277H160.102L159.421 81.0962C156.31 81.0962 153.977 81.0962 150.963 81.0962C150.768 82.0023 150.671 82.2037 150.477 83.1098C154.463 83.1098 157.768 83.1098 161.754 83.1098L160.879 86.3317C156.407 86.3317 152.324 86.3317 147.949 86.3317C146.782 86.3317 146.102 85.3249 146.394 84.1167C147.171 81.1969 147.949 78.1763 148.727 75.2565C148.824 74.149 150.088 73.1422 151.255 73.1422C155.629 73.1422 159.713 73.1422 164.185 73.1422L163.31 76.364C159.421 76.364 156.018 76.364 152.13 76.364Z" fill="white"/>
<path fill-rule="evenodd" clip-rule="evenodd" d="M144.676 86.3317H140.814L135.891 78.8376L133.961 86.3317H130.196L133.574 73.1422H137.436L142.359 80.6362L144.29 73.1422H148.055L144.676 86.3317Z" fill="white"/>
<path fill-rule="evenodd" clip-rule="evenodd" d="M131.924 73.1422L131.065 76.4395H125.914L123.338 86.3317H119.617L122.098 76.4395H116.946L117.709 73.1422H131.924Z" fill="white"/>
<path fill-rule="evenodd" clip-rule="evenodd" d="M108.766 86.3317H112.826L111.473 81.0359H112.246C113.31 81.0359 114.47 80.1366 114.76 78.9376C115.05 77.7385 115.436 76.4395 115.726 75.2405C116.016 74.1414 115.34 73.1422 114.276 73.1422C109.733 73.1422 105.189 73.1422 100.742 73.1422L99.8723 76.3396C103.739 76.3396 107.606 76.3396 111.473 76.3396L110.989 78.1382C107.799 78.1382 104.609 78.1382 101.419 78.1382C100.356 78.1382 99.1956 79.0375 98.9056 80.2365C98.4223 82.235 97.8422 84.2334 97.3589 86.2318H101.322C101.806 84.5331 102.192 82.7346 102.676 81.0359C104.319 81.0359 105.866 81.0359 107.509 81.0359L108.766 86.3317Z" fill="white"/>
<path fill-rule="evenodd" clip-rule="evenodd" d="M91.0221 81.3982L89.966 77.1695L86.7015 81.4989H91.0221V81.3982ZM96.2069 86.3317H92.1743L91.6942 84.2174H84.6852L83.0529 86.3317H78.9243L89.0058 73.1422H92.9424L96.2069 86.3317Z" fill="white"/>
<path fill-rule="evenodd" clip-rule="evenodd" d="M79.3126 81.5996C80.376 81.5996 81.536 80.6934 81.826 79.4852C82.116 78.277 82.5994 76.5654 82.8894 75.2565C83.1794 74.149 82.5027 73.1422 81.4393 73.1422C76.8958 73.1422 72.3523 73.1422 67.9054 73.1422L67.0354 76.364C70.9022 76.364 74.7691 76.364 78.6359 76.364L78.1525 78.1763C74.9624 78.1763 71.7723 78.1763 68.5821 78.1763C67.5188 78.1763 66.3587 79.0825 66.0687 80.2907C65.5854 82.3044 65.0053 84.3181 64.522 86.3317C65.8754 86.3317 67.2288 86.3317 68.4855 86.3317C68.9688 84.5194 69.2588 83.3112 69.7422 81.4989H79.3126V81.5996Z" fill="white"/>
</g>
<defs>
<clipPath id="clip0_3579_2123">
<rect width="212" height="95.9242" fill="white"/>
</clipPath>
</defs>
</svg>
